<svg width="20" height="20" viewBox="0 0 20 20" fill="none" xmlns="http://www.w3.org/2000/svg">
<mask id="mask0_1199_49" style="mask-type:luminance" maskUnits="userSpaceOnUse" x="0" y="0" width="20" height="20">
<path d="M10 20C15.5228 20 20 15.5228 20 10C20 4.47715 15.5228 0 10 0C4.47715 0 0 4.47715 0 10C0 15.5228 4.47715 20 10 20Z" fill="white"/>
</mask>
<g mask="url(#mask0_1199_49)">
<path d="M13.7466 13.4668H11.355V11.3933L13.4724 11.5963L13.7466 13.4668Z" fill="#F0F0F0"/>
<path d="M9.99495 19.4074C9.60548 19.4074 9.21601 19.3855 8.83203 19.3361C6.77498 19.0838 5.04158 18.4475 3.68118 17.4546C1.21272 15.6499 0.203397 12.77 0.686118 8.8863C1.27306 4.20171 5.25002 0.680046 9.97301 0.674561C10.3625 0.674561 10.7519 0.696502 11.1359 0.745872C16.2703 1.39316 19.9072 6.07226 19.2599 11.2066C18.673 15.8803 14.707 19.391 9.99495 19.4074Z" fill="#F0F0F0"/>
<path d="M9.97295 1.2944C10.335 1.2944 10.697 1.31634 11.0591 1.36023C15.8534 1.96363 19.2489 6.34103 18.6455 11.1353C18.0969 15.5018 14.3942 18.7766 9.99489 18.793C9.63285 18.793 9.27081 18.7711 8.90877 18.7272C8.21212 18.6449 7.52644 18.5078 6.85721 18.3103C5.78206 17.9922 4.83856 17.5369 4.04865 16.9664C3.58239 16.6263 3.16001 16.2313 2.79797 15.787C2.39753 15.2933 2.0684 14.7502 1.82155 14.1633C1.22364 12.7426 1.05359 10.9982 1.30043 8.97405C1.84349 4.59117 5.56264 1.29989 9.97295 1.2944ZM9.97295 0.0546875C5.00861 0.0546875 0.702518 3.75738 0.0771754 8.80949C-1.12963 18.5517 7.03823 19.731 8.75518 19.945C9.16659 19.9943 9.578 20.0218 9.99489 20.0218C14.9592 20.0218 19.2653 16.3191 19.8907 11.267C20.5709 5.79248 16.6817 0.811682 11.2127 0.131484C10.8013 0.0821149 10.3844 0.060173 9.97295 0.0546875Z" fill="#E0B404"/>
<path d="M7.87731 12.7262C7.33425 11.0915 7.63595 7.32299 8.16804 4.93682C8.16804 4.93133 8.16804 4.92585 8.16804 4.92036L8.25032 2.98399V2.97851L8.23935 2.63841C8.23935 2.61098 8.25032 2.57807 8.27226 2.56161L8.43134 2.39705C8.46426 2.36414 8.51362 2.35316 8.55751 2.36962L8.78241 2.45739C8.80435 2.46836 8.82081 2.47933 8.83727 2.50127L9.04023 2.81394C9.04023 2.81943 9.04572 2.81943 9.04572 2.82491L9.13897 2.93462C9.17737 2.98399 9.24868 2.98948 9.29805 2.95108C9.3145 2.93462 9.33096 2.91268 9.33644 2.89074C9.3529 2.81394 9.42421 2.77006 9.50101 2.78652C9.52295 2.792 9.54489 2.80297 9.55586 2.81943L9.68751 2.96754C9.693 2.97851 9.70397 2.98399 9.71494 2.98948C9.76431 3.01691 9.80271 3.0553 9.83562 3.09919L10.0112 3.36249C10.0166 3.36798 10.0166 3.37346 10.0166 3.37346L10.2361 3.83973C10.2415 3.8507 10.2415 3.86167 10.247 3.86715L10.2745 4.04269C10.2854 4.10303 10.3074 4.15788 10.3458 4.20725L10.4061 4.28405C10.439 4.32245 10.4774 4.35536 10.5213 4.38279L10.7791 4.53638C10.7956 4.54735 10.812 4.55284 10.8285 4.55284L11.7226 4.61318L12.3699 4.64609C12.3864 4.64609 12.3973 4.65157 12.4138 4.65706L12.8197 4.84356C12.8252 4.84905 12.8362 4.85454 12.8417 4.86002L13.0611 5.03556C13.0666 5.04104 13.072 5.04104 13.0775 5.04653L13.275 5.26046L13.2805 5.26595L13.4341 5.40857C13.4505 5.42502 13.478 5.43599 13.4999 5.43599L14.0539 5.48536C14.0594 5.48536 14.0649 5.48536 14.0704 5.48536L14.6189 5.44697H14.6299L15.9739 5.22206C15.9793 5.22206 15.9793 5.22206 15.9848 5.22206C16.122 5.25497 16.2591 5.35371 16.2591 5.49634L16.3085 5.99551C16.3085 6.01197 16.3085 6.02843 16.303 6.0394L16.0891 6.9445C16.0836 6.96644 16.0781 6.98838 16.0671 7.01032C16.0616 7.02129 16.0507 7.03227 16.0397 7.04324L13.851 8.94669C13.8345 8.96315 13.8181 8.98509 13.8181 9.00703L13.5328 10.2906C13.5273 10.3181 13.4505 11.0257 13.4615 11.0476C13.4615 11.0476 10.9656 13.3899 11.0753 14.2895" fill="#1B1B1B"/>
<path d="M13.3353 13.1375L12.9075 15.4304L12.4961 16.7414L12.8362 20.6251L8.4423 20.5703C5.38141 20.1753 5.54049 19.1879 4.20752 19.4567L7.88278 12.7261" fill="#1B1B1B"/>
<path d="M10.8394 19.7256C10.8394 19.7256 11.2508 19.1222 11.6512 18.5242C12.0297 17.9592 12.3972 17.3997 12.3917 17.3613C12.3588 17.0925 13.5601 15.0355 13.7851 13.9987C13.7851 13.9987 14.1361 12.9675 13.231 11.1902" fill="#F0F0F0"/>
<path d="M10.8394 19.7256C10.8394 19.7256 11.2508 19.1222 11.6512 18.5242C12.0297 17.9592 12.3972 17.3997 12.3917 17.3613C12.3588 17.0925 13.5601 15.0355 13.7851 13.9987C13.7851 13.9987 14.1361 12.9675 13.231 11.1902" stroke="#1B1B1B" stroke-width="0.288217" stroke-miterlimit="10"/>
<path d="M13.637 11.651C12.0407 12.0075 9.36931 11.7113 7.88823 13.0223C6.64852 14.1194 5.67211 14.5912 5.67211 14.5912C5.48011 14.6899 4.08681 15.1726 3.02263 15.3153C2.02976 15.4469 0.844899 15.1178 0.592567 14.7393C0.318294 14.3279 0.290867 14.0207 0.246983 13.6587C0.131788 12.7481 -0.126029 12.1666 -0.0931159 11.5138C-0.0711741 11.075 -0.224767 11.1079 0.181157 11.256C4.69569 13.4721 8.03086 9.48422 13.061 10.9927" fill="#E0B404"/>
<path d="M12.7485 11.2284C12.8747 11.0474 13.5165 10.5756 13.5165 10.6524C13.5165 11.2119 13.5165 10.817 13.6372 11.6617" fill="#E0B404"/>
</g>
</svg>
